# xmcd CD database file
#
# Track frame offsets:
#	150
#	58125
#	88220
#	119157
#	138367
#	159622
#	195885
#
# Disc length: 3540 seconds
#
# Revision: 0
# Processed by: cddbd v1.5.2PL0 Copyright (c) Steve Scherf et al.
# Submitted via: CDex 1.70beta2
#
DISCID=620dd207
DTITLE=Lieto, Gaspare DI 5tet - Dance of the whales
DYEAR=1992
DGENRE=Jazz
TTITLE0=a walk to the peak
TTITLE1=song for a black woman
TTITLE2=lolo julio
TTITLE3=unknown blues
TTITLE4=yolanda
TTITLE5=sebsi
TTITLE6=dance of the whales
EXTD=YEAR: 1992
EXTT0=
EXTT1=
EXTT2=
EXTT3=
EXTT4=
EXTT5=
EXTT6=
PLAYORDER=
